<svg version="1.1" xmlns="http://www.w3.org/2000/svg" xmlns:xlink="http://www.w3.org/1999/xlink" width="564.6398" height="315.04831" viewBox="0,0,564.6398,315.04831"><g transform="translate(40.28724,-181.16857)"><g data-paper-data="{&quot;isPaintingLayer&quot;:true}" fill-rule="nonzero" stroke-linejoin="miter" stroke-miterlimit="10" stroke-dasharray="" stroke-dashoffset="0" style="mix-blend-mode: normal"><path d="M501.16597,303.5132c0,5.16305 0.61701,10.73424 -0.03746,15.84242c-0.22352,1.74462 -1.23867,3.36698 -1.5015,5.10763c-0.48404,3.2056 0.03746,6.4638 0.03746,9.69572c0,5.9589 0,11.91779 0,17.87669c0,5.95677 0.07577,11.9203 0,17.8767c-0.01752,1.37734 -0.54423,2.79823 -0.13376,4.13069c0.51637,1.6762 2.12486,2.98243 2.82618,4.60931c0.84299,1.95551 1.44699,3.99929 1.77461,6.06334c0.25935,1.63389 -0.30128,3.31393 -0.0271,4.94605c0.22384,1.33245 1.25199,2.50157 1.5015,3.83071c0.27881,1.48525 0.04304,3.00789 0.06456,4.51184c0,1.80293 -0.86072,3.71398 -0.13376,5.4076c0.76752,1.78809 2.48406,3.25599 3.003,5.10763c0.55303,1.97327 0.10235,4.0562 0.13376,6.08456c0.07247,4.68037 0,9.36523 0,14.04597c0,3.72863 0.13922,6.15619 -2.02937,9.56304c-0.86735,1.36261 -1.32521,3.11445 -2.845,3.96903c-2.3058,1.29655 -5.26182,1.44617 -7.92196,2.08523c-10.35649,2.48802 -20.37894,1.91252 -30.92,2.67191c-4.28965,0.30903 -8.6631,0.30584 -12.8377,1.20012c-4.99717,1.07049 -9.86622,2.53463 -14.80354,3.78999c-17.32725,2.95536 -34.81627,4.60644 -52.50485,5.16597c-16.1978,0.51238 -32.6049,-0.56375 -48.73806,1.31746c-11.42174,1.33182 -22.84621,3.20542 -34.16469,5.0597c-5.15889,0.84517 -10.21908,2.295 -15.45987,2.60853c-9.34266,0.55894 -19.14157,0.02069 -28.51071,0.02069c-9.68832,0 -19.91696,-0.73287 -29.56488,-0.01613c-5.75123,0.42726 -11.29984,2.18954 -17.05706,2.55381c-25.31422,1.60169 -50.50782,-1.74665 -75.71799,-2.54135c-5.58209,-0.17597 -11.20435,0.49834 -16.75775,-0.0135c-8.04824,-0.74178 -9.62933,-1.77314 -16.76402,-2.57809c-5.08404,-0.57359 -10.31324,-0.32716 -15.30734,-1.31943c-3.40701,-0.67694 -6.69291,-1.73668 -10.03936,-2.60501c-10.86835,-2.86876 -22.40676,-4.05686 -33.79147,-4.76153c-4.40113,-0.27242 -8.99548,0.74876 -13.23373,-0.29618c-3.86684,-0.95337 -7.26086,-3.0494 -11.13683,-3.97559c-4.41397,-1.05475 -9.08139,-1.29221 -13.42918,-2.52992c-2.36415,-0.67302 -4.49743,-1.90539 -6.9147,-2.42428c-1.3478,-0.28932 -2.80344,0.26189 -4.16988,0.04487c-2.8212,-0.44806 -5.91277,-0.6357 -8.27533,-2.02141c-6.79803,-3.98723 -5.62911,-11.70299 -7.85513,-17.41865c-1.71909,-4.41403 -5.26151,-8.1724 -7.36415,-12.46467c-3.1017,-6.33173 -4.84363,-11.57102 -4.9185,-18.28414c0,-0.88061 -0.01899,-10.38316 0.06456,-10.89637c0.21706,-1.33326 1.27766,-2.49827 1.5015,-3.83071c0.6521,-3.88181 -0.09002,-8.17203 2.08594,-11.62914c1.00208,-1.59209 3.43995,-2.26822 4.5045,-3.83071c0.90305,-1.32545 0.57064,-3.04124 1.16308,-4.48787c0.51572,-1.2593 1.20227,-2.49272 2.13472,-3.5648c0.62445,-0.71796 2.05454,-0.86404 2.43982,-1.69478c0.41663,-0.89836 -0.49409,-1.93086 -0.31604,-2.88462c0.17847,-0.95603 3.5208,-9.06784 3.96491,-9.56133c0.94974,-1.05536 3.22493,-0.86113 4.06966,-1.9792c0.59923,-0.79312 -0.63912,-1.87122 -0.45787,-2.80127c0.18299,-0.93894 1.22686,-1.63117 1.5015,-2.55381c0.21727,-0.7299 -0.24287,-1.5197 -0.06919,-2.25799c0.31048,-1.31982 1.19118,-2.51087 1.5015,-3.83072c0.21905,-0.93165 -0.19891,-1.92731 0.06919,-2.84964c0.26857,-0.92394 1.19816,-1.63768 1.5015,-2.55381c0.54264,-1.63881 -0.06446,-3.40597 0,-5.10763c0.75223,-1.27943 1.48877,-2.70395 1.36775,-4.13069v-2.10689c-1.31453,-0.58331 -2.40559,-1.54582 -3.64358,-2.25902c0,0 -4,-2.55126 -1,-5.95294c3,-3.40168 7,-0.85042 7,-0.85042c2.56154,2.07546 6.98064,1.06351 10.50337,1.06351c1.64438,0 3.29806,0.19146 4.9329,0.0411c2.1926,-0.20165 3.98711,-1.88117 5.81386,-2.71767c1.7602,-0.80603 3.58067,-1.52447 5.44512,-2.13798c5.63835,-1.85537 11.82683,-3.2348 17.20596,-5.58212c7.77855,-3.13276 18.54988,-2.80546 26.39832,0.23696c2.7263,1.05684 4.92946,2.22312 7.81658,3.0455c3.39839,0.96803 6.85491,1.15907 10.32426,1.78492c5.29265,0.95476 10.04298,2.13941 15.46135,2.13941c5.17803,0.01838 12.11593,-1.62284 14.82043,-5.87894c1.41739,-2.23057 1.57726,-4.62874 1.98334,-7.04607c0.33969,-2.02212 1.04615,-3.72754 0.75019,-5.83817c-0.14844,-1.05858 -1.17593,-1.90912 -1.45968,-2.94754c-0.06381,-0.23349 0.62815,-0.55236 0.36917,-0.64702c-0.49947,-0.18257 -1.12374,0.38894 -1.61534,0.19151c-1.4065,-0.56485 -5.30846,-3.64628 -6.47906,-4.53438c-0.63631,-1.99516 -2.4526,-3.97061 -1.90894,-5.98548c0.471,-1.74559 2.89221,-2.61998 4.53364,-3.74201c0.73445,-0.50205 1.68083,-0.72492 2.52413,-1.08248c0.12714,-0.05391 0.25859,-0.13419 0.39178,-0.22491c2.72289,-4.93313 8.23395,-6.47791 14.24303,-6.91204c1.64777,-0.11904 7.2491,0.08813 8.10163,0.39074c1.6001,0.56796 2.38937,2.28618 4.00385,2.82391c3.87599,1.29097 8.32736,1.22967 11.96115,3.19347c3.48145,1.88146 5.91398,5.02478 7.69204,8.04899c0.40249,2.18275 -0.14581,5.26925 0.46878,7.30862c0.47009,1.5599 1.66169,2.94392 1.96089,4.534c0.20956,1.11374 0.19604,2.24827 0.2506,3.37703c0.16688,-0.0143 0.33617,-0.02163 0.50749,-0.02163c0.51696,0 1.01559,0.06672 1.48465,0.19059l2.32973,0.56607c2.60519,-0.24984 8.37621,3.62929 8.37621,3.62929c1.68026,0 5.69386,2.55531 5.69386,2.55531c7.85565,1.67964 16.05056,2.47724 24.03954,3.38354c3.79342,0.43034 9.12466,-0.92642 12.95966,-1.62531c3.46848,-0.63209 5.9295,-2.52259 9.12643,-3.72035c1.01539,-0.5833 2.33509,-0.89949 3.04888,-1.74649c1.01432,-1.20362 0.80637,-4.47413 1.27004,-5.87038c0.69593,-2.09567 1.21161,-3.69867 1.70235,-5.85208c0.06257,-0.27456 0.43406,-0.5532 0.28606,-0.80295c-0.29478,-0.49743 -1.0888,-0.66791 -1.43722,-1.13961c-0.49007,-0.66345 -0.80285,-1.40736 -1.1437,-2.13853c-0.73907,-0.8218 -2.16463,-2.89398 -0.22221,-5.0672c0.21045,-0.72886 0.64187,-1.38386 1.23042,-1.91071c1.25008,-2.04634 3.07982,-3.84126 5.55205,-4.48461c0.64326,-0.16739 1.09849,-2.3136 1.47602,-2.61943c2.35098,-1.90448 6.86205,-3.57617 10.09819,-3.57617c7.14863,0 14.60938,3.21608 19.04275,8.17755c3.14267,3.51704 7.75495,6.54674 11.2139,10.00309c4.72006,4.71652 7.37993,11.18796 11.35104,16.49484c2.90357,3.88025 3.96048,9.27105 7.40767,13.00997c2.33794,2.5358 6.83194,4.72648 10.39865,5.68926c1.33391,0.36007 5.19237,0.93122 6.53574,2.218c5.51721,0.6648 10.6741,2.68828 15.74443,4.60342c2.81027,1.06147 6.35258,0.52222 9.26217,1.07209c8.09958,1.53068 15.97418,2.88648 24.47334,3.10994c6.14615,0.16158 9.83916,-1.50164 15.47165,-1.67458c9.7206,-0.29845 18.92525,-2.35303 28.47941,-2.8707c1.8618,-0.10087 3.39384,-1.13708 5.15929,-1.67998c0.33621,-0.50101 0.78877,-0.93827 1.32639,-1.28514c0.15393,-0.12673 0.32556,-0.2383 0.51928,-0.33097c0.42861,-0.20504 0.87812,-0.33739 1.34218,-0.41694c0.37161,-0.07492 0.75927,-0.11458 1.15782,-0.11458c0.16069,0 0.3196,0.00644 0.47641,0.01905c2.57319,0.07931 5.34821,0.99448 7.39748,-0.14936c3.70124,-2.06592 7.76993,-2.4039 10.46656,-3.7912c5.55949,-2.86013 11.71593,-5.77473 17.81093,-7.95718c2.1127,-0.7565 4.52511,-0.59457 6.65751,-1.44338c3.88959,-1.54829 6.98209,-3.6939 11.34586,-4.29802c3.37175,-0.46679 13.37695,-3.58765 16.59654,-2.90315c0.06998,0.01488 0.15046,0.038 0.23975,0.06869c0.47985,-0.41474 1.13344,-0.7844 2.01558,-1.06572c4.68165,-1.49302 6.43726,2.48835 6.43726,2.48835c0.17919,0.41627 0.34802,0.83736 0.50702,1.26273c0.47751,0.6019 0.68003,1.11857 0.68003,1.11857l-0.10266,0.04881c0.06883,0.11706 0.13765,0.23412 0.20648,0.35119l-0.24407,0.05827c0.32982,1.05588 0.60574,2.13265 0.83564,3.22202c3.05826,0.92617 3.05826,3.99006 3.05826,3.99006z" fill="#60a2f3" stroke="none" stroke-width="0.5" stroke-linecap="butt"/><path d="M47.98153,274.35785c-0.22348,-4.10665 1.40946,-7.96146 1.05901,-12.18741c-0.19468,-2.34764 -7.074,-5.9937 -7.41307,-8.97678c-0.12295,-1.08169 2.79673,-5.07825 3.71486,-6.27137c7.05329,-9.16591 20.96296,-7.98275 31.05465,-3.07798c2.41769,1.17504 11.3354,7.5523 12.03274,9.92442c2.00296,6.81343 0.21439,13.64854 3.87375,19.87254c0.18108,0.15794 0.34782,0.32783 0.49845,0.50813c0.44372,0.32344 0.74649,0.63608 0.93324,0.9389c1.25833,1.21558 1.86161,3.26397 3.3941,4.26681c0.81625,0.53415 2.22577,0.53006 3.09546,0.98868c0.18968,0.10003 2.20696,1.7188 2.22982,1.71999c2.67785,0.1397 3.81867,-2.95345 7.1988,-2.95345c7.16199,0 9.8812,8.65859 7.80203,13.60947c-1.17575,2.79967 -4.44553,4.12712 -7.13785,5.41526c-2.38338,1.14032 -4.74607,3.10342 -7.56987,3.69742c-2.75229,0.57896 -13.47958,0.7 -16.78926,-0.98877c-2.50504,-1.2782 -5.12174,-2.82151 -8.07659,-3.6309c-4.0434,-1.10758 -8.60868,-2.00013 -12.32759,-3.68687c-0.70629,-0.32034 -1.28267,-1.32619 -1.94804,-1.52679c-1.64954,-0.49732 -14.15149,-0.35505 -15.25786,-2.00158c-0.09427,-0.1403 -0.18266,-0.28005 -0.26551,-0.41935c-1.43895,0.2369 -3.43597,0.10803 -4.95243,0.57133c-0.30901,0.0944 -3.26901,1.9201 -3.40244,2.00123c0,0 -1.83091,1.11216 -3.13869,-0.44487c-1.30778,-1.55703 0.52311,-2.6692 0.52311,-2.6692c1.38757,-0.84206 2.74713,-1.81464 4.28792,-2.38166c-0.12836,-0.24068 -0.19984,-0.50798 -0.19984,-0.78947c0,-0.42281 0.16126,-0.81359 0.43432,-1.13029l1.30855,-1.55793l0.61578,0.37405l0.41439,-0.22026l0.52923,-0.94109c0.07864,0.04433 0.15925,0.08713 0.24149,0.12867c0.17366,-0.1209 0.35263,-0.23996 0.49497,-0.37166l0.94257,-1.60316c0.16751,-0.3005 0.42439,-0.55799 0.74144,-0.74761c-0.00021,-0.00327 -0.00043,-0.00653 -0.00064,-0.00981c-0.0748,-1.14497 -1.18197,-3.40297 0.42617,-4.18445l0.7429,-0.36102c-0.0671,-0.36448 -0.10058,-0.70891 -0.11006,-0.88318z" fill="#215da7" stroke="none" stroke-width="0.5" stroke-linecap="butt"/><g fill="#3e7fcd" stroke="none" stroke-width="0.5" stroke-linecap="butt"><g><path d="M281.88573,230.4044c0.19128,-0.28468 0.34934,-0.59779 0.49706,-0.91978c-1.41753,0.18572 -2.79947,0.4533 -4.2125,0.81214c-0.33497,0.54323 -0.93811,0.94808 -1.65986,1.08737l-2.26761,0.48211c-6.24664,3.1084 -14.27187,6.97808 -14.11335,14.12241c0,0 0,2.12605 -2.5,2.12605c-2.5,0 -2.5,-2.12605 -2.5,-2.12605c0.08387,-5.36583 4.43504,-11.63744 9.81206,-14.62947c0.19353,-0.10768 0.39033,-0.21361 0.58993,-0.31799c-0.07412,-0.20105 -0.11407,-0.41496 -0.11407,-0.6368c0,-1.01179 0.8311,-1.8585 1.94439,-2.07335l2.42254,-0.51505c0.98816,-0.30756 1.93572,-1.04729 2.96768,-0.88835c0.18291,0.02818 0.36329,0.06313 0.54149,0.10396c0.01039,-0.00319 0.02078,-0.00636 0.03117,-0.00954l0.01277,-0.09775l0.23665,0.02236c4.44599,-1.32908 9.21557,-1.96567 13.95334,-1.878l2.84916,1.30253c0,0 0.22738,0.1105 0.4929,0.32255c3.44599,1.19682 6.71387,3.77684 8.4519,5.50123c3.30987,3.28392 7.46219,7.82486 9.00069,11.74229c0.52541,1.33783 3.58796,2.7635 4.47901,4.02644c2.77413,3.93196 4.1895,7.92676 6.31273,12.17802c1.22235,2.44745 3.608,5.15006 4.32155,7.86533c0.61624,2.34498 3.38401,10.04216 3.49361,11.33735c0.06943,0.82047 0.0632,3.18124 -0.625,3.76649c-3.33333,2.83474 -5.41667,2.83474 -8.75,0c-0.83201,-0.70756 -0.24054,-2.00876 -0.625,-2.95447c-1.87327,-4.60788 -2.53404,-10.57538 -5.70723,-14.70592c-2.07541,-2.70155 -2.21123,-6.43708 -4.51738,-9.04104c-4.49412,-5.0745 -8.43591,-10.03766 -12.19058,-15.82639c-1.00103,-1.54333 -4.62898,-4.47625 -6.41036,-5.31703c-1.16888,-0.55169 -3.09208,-0.21004 -3.75534,-1.19712z"/><path d="M412.98734,255.70214c2.21653,3.24816 4.29997,6.05298 6.8939,9.0143c0.55647,0.63529 3.1619,2.62437 2.95506,3.48122c1.93883,0.87991 3.69155,2.51987 5.54095,3.24739c9.79787,3.8543 19.13993,8.26047 29.52931,10.801c6.2442,1.5269 19.22921,-1.63627 25.79536,-2.87716c2.46599,-0.46603 5.35882,0.71053 6.32455,2.68926c1.30705,2.67809 1.15891,9.37674 -2.24341,10.80634c-1.80901,0.76011 -5.00059,0.02959 -6.65296,0.89806c-4.83103,2.53914 -11.99748,2.2612 -17.21687,4.00281c-9.33722,3.11566 -19.06538,5.93993 -28.59241,8.29924c-6.78796,1.68099 -17.63208,8.04685 -23.07044,8.20819c-0.35449,0.01051 -1.1438,0.02973 -2.11138,-0.00081c-2.13328,3.40897 -12.67014,5.23478 -16.31833,5.29661c-3.00004,0.05084 -6.52114,1.59641 -9.52119,1.54557c-20.50768,-0.34756 -41.64359,0.53465 -60.06777,-6.68738c-4.64031,-1.81894 -9.78008,-3.1112 -14.17179,-5.01396c-0.37144,-0.16093 -1.22613,-0.5394 -2.0702,-0.9715c-1.81452,-0.62953 -3.62651,-2.36001 -4.65384,-2.89721c-6.02614,-3.15107 -15.62113,-10.37058 -14.69867,-17.38988c0.60359,-4.59287 6.70397,-5.97278 8.03743,-10.07785c0.49631,-1.52789 -1.89207,-4.75884 0.2441,-5.95856c-0.88663,-0.94506 -0.55416,-5.16752 -0.56559,-5.52161c-0.04757,-1.47378 -1.9596,-3.10434 -2.3154,-4.4989c-0.17551,-0.68792 -0.30725,-2.96107 -1.2433,-3.30052c-2.17097,-0.78731 -3.49042,-3.68854 -5.54004,-4.80184c-5.74219,-3.11899 -10.06007,-7.02082 -16.03655,-9.95604c-0.276,-0.13555 -5.08488,1.31841 -8.27375,2.22475c-0.78746,0.44015 -1.72988,0.6962 -2.74264,0.6962c-2.76142,0 -5,-1.90372 -5,-4.2521c0,-1.99841 1.6211,-3.67482 3.80597,-4.13009c2.98093,-1.74162 7.03199,-2.81114 9.87446,-3.1295c1.72645,-0.19336 2.80914,0.41846 4.37463,0.3149c3.12649,-0.20684 5.23472,2.82529 7.76413,3.89861c8.95195,3.79862 19.23363,11.67765 22.76051,19.69311c1.39993,3.18159 5.50376,9.72419 1.98451,12.78752c0.22503,0.35466 0.36305,0.70915 0.44769,1.06558c0.09136,0.32148 0.13978,0.65719 0.13978,1.00253c0,0.083 -0.0028,0.16545 -0.00832,0.24728c0.00603,0.36212 -0.00225,0.72861 0.00832,1.10154c0.07067,2.49455 0.40659,4.33583 -0.625,6.79221c-1.20024,2.858 -5.10671,4.47407 -6.5955,7.19698c-0.51235,0.93706 2.74463,3.17598 3.51965,3.88422c1.37084,1.25273 2.49923,2.61864 3.64542,4.02634c0.55473,0.68129 4.05032,1.79309 6.12248,3.04549c4.28045,0.84087 8.50277,3.74793 12.35803,5.10597c8.33746,2.93691 20.81156,6.68063 29.91602,6.72609c12.02618,0.06005 25.3781,0.36392 37.79578,0.27341c3.93679,-0.0287 7.03905,-2.43329 10.50321,-3.47015c0.30831,-2.09682 2.41192,-3.71916 4.96111,-3.71916c0.32884,-0.26454 0.80711,-0.04904 1.28865,0.14256c0.23936,0.05414 0.47167,0.12301 0.69549,0.20538c1.54621,0.15884 3.37762,-0.33094 4.76309,-0.87271c4.48038,-1.752 8.86822,-4.77093 13.81628,-5.96832c6.76009,-1.63588 13.05929,-3.81683 19.69231,-5.84942c2.99427,-0.91755 6.005,-1.14714 8.85729,-2.23105c0.51482,-0.19564 -1.09036,-0.24508 -1.63734,-0.36162c-1.05231,-0.22422 -1.82864,-0.55022 -2.86455,-0.84387c-3.09564,-0.87753 -5.88212,-1.33972 -8.96002,-2.37889c-7.82637,-2.6424 -19.69796,-6.94365 -25.87681,-11.44761c-0.8871,-0.64664 -1.52369,-1.5817 -1.831,-2.59192c-0.13247,-0.07684 -0.26418,-0.15834 -0.39406,-0.24142c-0.38596,-0.1882 -0.73958,-0.41892 -1.05204,-0.68464c-2.54593,-1.53802 -4.42723,-4.60272 -6.26646,-6.71906c-4.098,-4.71546 -10.28897,-14.99491 -12.00353,-20.82732c-0.06612,-0.22491 -0.13615,-0.45655 -0.21012,-0.69359l0.56705,0.09645l1.49788,1.09185l0.72,0.30616l5.03115,0.95079l1.51399,-0.85836l0.36927,0.0628l0.70964,-0.67449l0.7898,-0.44778c1.67009,3.7975 3.39755,7.57199 5.81703,11.11755z"/><path d="M360.24051,254.05069c0.23996,1.0108 0.23817,2.31741 0.26504,4.23235c0.07543,5.37597 0.87097,16.82853 -3.80203,21.93932c-1.02732,1.12356 -4.86929,2.48004 -5.34605,3.7163c-0.25198,0.65339 -4.43641,2.99647 -5.24757,3.16892c-6.12502,1.30221 -14.96182,3.37124 -21.0509,2.22051c-3.37815,-0.63841 -8.07509,-2.27716 -5.53114,-6.60399c2.04828,-3.48379 7.26621,-1.67293 10.70623,-1.67505c5.29451,-0.00326 16.19234,-2.75432 18.78456,-7.16328c2.38274,-4.05265 1.53217,-11.42786 1.4869,-15.07927c-0.01889,-1.52373 -1.23084,-5.10753 -0.09463,-6.54134c-1.16305,-1.5973 -1.89713,-3.69205 -2.03157,-4.84565c-0.44954,-3.85742 -3.32158,-6.61186 -4.35398,-10.12377c-1.2821,-4.36128 -1.86907,-8.90342 -4.6476,-12.84163c-0.68234,-0.96713 -2.31115,-4.16284 -2.64955,-6.48472c-0.21479,-0.12825 -0.42946,-0.27267 -0.64336,-0.43398c-2.43229,-1.8342 -4.52167,-5.46287 -5.47793,-8.03029c-0.31616,-0.84885 -1.21586,-1.58066 -2.19921,-2.28587l0.86053,0.28328l2.28081,0.24246l2.29418,0.48775h1.23106l1.1943,0.25391h2.52l0.81085,-0.17239l0.83314,0.05668l0.68719,-0.09739c0.32058,0.53476 0.63132,1.10637 0.93281,1.72537c0.47435,0.97387 2.42917,2.61992 2.42917,3.40229c0,0.24592 -0.01504,0.48783 -0.04418,0.72472c0.4957,0.27085 0.93147,0.61413 1.28665,1.01226c0.14902,0.13091 0.28022,0.27686 0.38919,0.44161c3.84355,5.81079 5.61028,12.57511 7.62403,18.98738c0.99304,3.16207 3.25911,5.7902 4.12058,9.03102c0.66181,2.48968 1.77516,5.73542 0.73557,8.04617c0.94756,0.71404 1.41254,1.4191 1.64691,2.40632z"/><path d=""/><path d=""/></g><path d="M406.46188,249.68709c3.79143,3.54674 8.26679,12.73808 6.62825,17.71019c-0.02085,0.06327 -0.0421,0.12608 -0.06374,0.18845c0.11863,0.05635 0.23344,0.11586 0.34414,0.17862c2.0762,1.17709 3.67762,2.94327 4.97875,4.75399c0.67803,0.94358 -0.03141,2.38323 0.77378,3.25151c0.26322,0.28386 6.66499,0.28367 6.7425,0.29445c2.34626,0 4.54154,0.54973 6.41746,1.506c0.83789,0.32621 1.62561,0.71564 2.30327,1.18282c9.78038,-0.88432 22.82212,1.93556 22.82212,11.18032c0,4.13682 -1.92044,7.4605 -6.25,9.30147c-5.82362,2.47625 -8.23367,0.65485 -13.7847,1.03433c-5.60585,0.38322 -10.46515,2.23901 -16.17444,2.35555c-2.06822,0.04221 -4.15664,2.35262 -6.01653,2.99995c-3.33519,1.1608 -5.27821,2.67271 -8.34225,4.79904c-0.05953,0.04131 -6.92436,2.4989 -8.5797,2.9305c-7.92233,2.06562 -10.51897,-0.51243 -18.09809,-0.42394c-1.36566,0.01594 -2.4678,1.03659 -3.79281,1.31829c-4.52679,0.96242 -10.01024,-1.31333 -14.39044,-1.48112c-1.43721,-0.05505 -2.86757,0.81797 -4.32824,0.81797c-3.5784,0 -6.95749,-0.86007 -10.35743,-1.24896c-2.45279,-0.28056 -6.20405,0.69181 -8.69488,0.14547c-4.19425,-0.91996 -5.47286,-2.25063 -8.56335,-4.45138c-0.38821,-0.27645 -0.81858,-0.50372 -1.27935,-0.69579c-0.06067,0.00073 -0.12144,0.0011 -0.18231,0.0011c-2.53224,0 -4.88862,-0.64034 -6.85746,-1.74099c-0.36114,-0.11629 -0.71019,-0.24748 -1.04259,-0.39895c-2.30212,0.74896 -4.568,-0.53568 -4.568,-0.53568l-1.13251,-0.64339c-2.54958,-1.63095 -4.32717,-2.30454 -5.44809,-3.95284c-0.33319,-0.01972 -0.6574,-0.06718 -0.96943,-0.1397l-2.66109,-0.56577l0.0956,-0.32522l-0.83826,0.11355c-1.72925,-1.10813 -4.053,-1.75617 -5.18775,-3.32441c-0.05089,-0.07033 -0.09781,-0.14187 -0.14105,-0.21452l-3.01846,-1.18475c-1.76965,-0.65478 -3.00701,-2.15494 -3.00701,-3.90089c0,-2.34837 2.23858,-4.2521 5,-4.2521h0.68903c0.46576,-3.64729 1.6235,-7.4103 2.86926,-10.61662c0.50619,-1.30282 0.70623,-2.78631 1.7328,-3.84404l0.60417,-1.7983c0.25904,-0.84328 0.81487,-1.58454 1.5669,-2.13822c-0.26759,-0.28954 -0.51067,-0.55297 -0.66621,-0.77409c-1.52647,-2.17012 -2.71222,-4.18326 -4.34159,-6.26689c-2.59758,-3.32179 -3.89084,-6.95789 -6.14492,-10.36909c-0.32741,-0.49549 -0.6533,-0.9911 -0.97807,-1.48685c-1.47654,-0.1868 -3.07027,-0.81581 -4.45782,-1.15834c-3.14773,-0.77704 -4.59377,-2.34215 -6.4866,-4.33438c-0.86223,-0.90751 -2.01256,-1.69766 -2.47656,-2.79563c-0.00426,-0.01007 -0.00791,-0.02029 -0.01099,-0.03066c-2.15206,-0.47152 -4.63402,-0.89084 -5.61821,-2.4803c-0.24027,-0.38804 -0.38324,-0.79946 -0.45179,-1.22599c-0.03496,0.01212 -0.06908,0.02435 -0.10231,0.03668c-3.65595,1.35586 -7.30164,3.10752 -10.88426,4.63253c0,0 -4.47213,1.90159 -6.70821,-1.9016c-2.23607,-3.80319 2.23607,-5.70479 2.23607,-5.70479c4.65141,-1.97584 9.55628,-3.63394 14.16276,-5.58035c1.03388,-0.43685 1.75228,-1.41078 2.87372,-1.6439c2.08299,-0.43302 4.58708,-1.22973 6.424,-0.28893c2.47078,1.26542 4.46132,3.65045 4.87833,6.0775c0.01326,0.07722 0.0212,0.15464 0.02408,0.23213c0.39218,-0.08405 0.80277,-0.12869 1.22563,-0.12869c0.90068,0 1.74574,0.20253 2.47564,0.55696l3.72719,1.72891l-0.15465,0.24113c0.31333,0.05999 0.62482,0.12828 0.93421,0.20615c1.34795,0.33922 1.96201,1.73029 2.74187,2.72491c1.88935,2.40965 3.73923,5.6771 5.39201,8.23121c2.07587,3.20793 3.20644,6.57356 5.62703,9.65312c2.82171,3.58985 7.06155,8.20983 8.0666,12.53988c0.61404,2.64549 0.15128,6.15715 -0.07978,8.99176c0.527,0.29764 0.98382,0.67801 1.34481,1.11931l1.69243,2.01499c1.34529,1.60207 3.06446,3.0099 4.08112,4.77851c0.19261,0.33506 0.38057,0.6646 0.56127,0.9894c0.20315,-0.04248 0.40851,-0.08117 0.61561,-0.11617c0.89757,-0.17411 1.83191,-0.26607 2.79151,-0.26607c0.1121,0 0.22386,0.00125 0.33526,0.00375c1.14423,-0.00761 2.26982,0.07591 3.30132,0.23336c1.21803,0.18591 4.09297,1.79632 5.32334,1.29976c1.07306,-0.43307 1.45392,-1.64852 2.40275,-2.17591c2.81272,-1.56337 5.92148,-1.83198 9.03092,-2.54193c-0.19378,-5.53983 4.16802,-9.25377 9.75527,-11.48853c-0.26646,-0.86372 -0.40835,-1.77034 -0.40835,-2.70516c0,-0.64065 0.06664,-1.26806 0.19435,-1.8775c0.19761,-3.57346 1.10244,-7.31391 0.84435,-10.63814c-0.32429,-4.17678 -0.9862,-5.61907 -1.0387,-10.34335c-0.01136,-1.02253 -4.70444,-5.36633 -5.35873,-7.7498c-0.12904,-0.47006 -0.2215,-0.94955 -0.27909,-1.43536c-0.1709,-0.07738 -0.34239,-0.15785 -0.51445,-0.24147c-4.78719,-2.32635 -6.18433,-10.54202 -7.35048,-14.68938c-0.02897,-0.10303 -0.11255,-3.69075 -0.39344,-4.1559c-1.87017,-3.09697 -3.03454,-6.66964 -6.32402,-9.08319h0.69443l0.81085,-0.17239l0.83314,0.05668l2.16,-0.30615l0.25134,-0.09293l0.27397,0.00613l2.71229,-0.51257l5.39226,-0.50952h5.49477l-0.01319,0.20192l-0.36124,0.92162l0.28298,0.27631l-0.14145,2.16522l0.77754,0.44082l0.12421,0.92052l4.10333,2.65206l2.52,0.91845l0.79938,0.10965l0.71445,0.32404l2.32743,0.49483l1.59426,0.50842l1.82228,0.88554l0.67719,0.16197l0.57029,0.35026l1.09423,0.37222l0.60844,0.51743l0.17074,0.2178l0.73699,0.56977l0.51244,0.72632l1.40837,1.19771l1.09401,1.16296l1.41016,0.91369l0.87602,0.74499l0.08201,0.19528l0.72,0.91845l0.32744,0.25315l0.18438,0.34211l2.6089,2.77333l0.85394,1.0893l0.44157,0.75105l0.18491,0.18346l0.07693,0.23261l1.09553,1.63039l0.74948,1.59343l-0.00529,0.01649l0.03915,0.05549l0.3988,0.84787l1.17829,1.38744l1.03541,1.46756l0.7593,0.64572l0.04455,0.05246l0.01991,0.00236l0.58461,0.49716l1.09401,1.16296l0.93408,0.60522l0.24694,0.33l0.04242,0.64929l0.97558,0.71113l0.68984,0.92188l0.74982,0.12753l1.49788,1.09186l0.72,0.30615l2.92139,0.55209c1.54099,1.2484 3.56374,2.44188 4.78403,3.58341z"/><path d=""/></g><path d="M162.43671,281.22282l7.07295,7.38201" fill="none" stroke="#215da7" stroke-width="5" stroke-linecap="round"/><path d="M15.38315,303.52387c0,0 56.16789,-29.03701 23.82337,-49.00836c0,0 6.30089,-18.24517 25.52953,-15.96518c24.87958,2.95003 25.22009,29.10762 26.39408,32.2486c2.65859,7.11296 13.075,14.2195 19.51159,6.14819" fill="none" stroke="#215da7" stroke-width="5" stroke-linecap="round"/><path d="M286.27629,286.89074c25.21954,-12.46326 0.88067,-42.39027 -17.8562,-41.53463c-8.97333,0.40977 -14.32558,4.74497 -14.32558,4.74497c0,0 -0.85832,0.70219 -0.21747,0.22046c0.05143,-0.03866 -0.58957,-14.29928 9.20493,-20.2456c43.28764,-26.06305 65.98457,50.18753 65.98457,50.18753c0,0 15.31042,1.30552 20.6074,-7.72055c8.25074,-14.05927 -10.11413,-67.34987 -51.31273,-65.61882c-9.60927,0.40375 -23.10377,5.34216 -22.48263,4.32591c53.46608,-86.02882 146.0104,56.66726 146.0104,56.66726c0,0 55.5518,32.68738 85.53673,-1.16311" fill="none" stroke="#3e7fcd" stroke-width="5" stroke-linecap="round"/><path d="M-10.2656,303.43044c0,0 18.52571,7.55451 44.40902,-8.15787c26.34124,-15.99038 62.63675,26.23856 81.6494,-2.9029c5.95728,-11.63743 -11.26777,-19.34776 -10.89589,-20.07511c15.35676,-30.03601 60.4212,-9.35457 57.18311,14.89878c0,0 21.53503,8.13234 41.87586,9.69086c25.137,1.926 35.34835,-14.98084 23.81424,-24.09053c-2.10733,-2.1141 3.476,-7.40061 3.476,-7.40061c28.42134,-30.57741 54.95429,24.42359 65.35751,35.9296c10.55816,11.67739 42.00801,19.53299 63.61389,20.49367c54.45823,2.42142 84.72725,-26.86028 147.18586,-33.45703" fill="none" stroke="#60a2f3" stroke-width="5" stroke-linecap="round"/><path d="M407.78776,472.9938l-434.703,-47.03914l9.90594,-131.72404" fill="none" stroke="#60a2f3" stroke-width="25" stroke-linecap="round"/><path d="M499.16508,242.38151l12.22629,188.9822l-85.58559,52.35317" fill="none" stroke="#60a2f3" stroke-width="25" stroke-linecap="round"/><path d="M429.5945,457.90184l34.53453,-16.59979" fill="none" stroke="#60a2f3" stroke-width="25" stroke-linecap="round"/><path d="M402.08329,244.42417c0.78019,0.66326 1.44051,1.22527 1.63774,1.393c0,0 3.53553,3.00668 0,6.01338c-0.88115,0.74935 -1.76229,1.12517 -2.58871,1.26712c0.34579,0.70949 0.61383,1.40685 0.81862,2.11637c0.44651,0.75065 0.86905,1.52767 1.26572,2.33773c1.24946,2.55156 4.64114,9.38135 1.84925,11.82621c-2.29302,2.00799 -6.11324,4.08101 -9.18643,3.07887c-2.81836,-0.91903 -2.48095,-4.69781 -3.33138,-7.16078c-0.91849,-2.66007 -0.0149,-5.01688 -0.32644,-7.42221c-0.4472,-0.96098 -0.952,-1.89485 -1.58353,-2.76256c-1.45122,-1.99392 -3.62482,-3.53514 -5.38538,-5.3399c-2.40276,-2.4631 -4.71371,-5.26192 -7.00828,-7.78543c-0.54658,-0.60112 -0.68858,-1.4468 -1.32101,-1.98359c-0.89728,-0.76157 -2.16301,-1.1356 -3.15049,-1.81166c-3.32549,-2.27669 -6.38939,-4.81668 -9.58702,-7.22221c-4.35113,-5.14447 -8.34424,-11.26136 -14.02476,-15.52373c-0.61958,-0.4649 -1.26819,-0.89012 -1.93581,-1.28825c-0.43744,0.09374 -0.87453,0.1887 -1.31158,0.28378c0.2057,0.1062 0.38713,0.19982 0.53788,0.2773c0.83797,0.5667 5.81284,3.86191 6.18276,4.43386c4.36512,6.74914 -1.37511,15.11881 -10.90125,13.05996c-5.19769,-1.12336 -8.31299,-5.93917 -9.39864,-10.04705c-0.19349,-0.7321 0.17305,-1.51531 0,-2.25111c-0.12431,-0.52858 -0.28747,-1.06798 -0.45433,-1.61207c-0.37465,-0.08507 -0.74047,-0.19071 -1.0903,-0.33411c-3.6641,-1.50194 -6.23266,-4.66267 -9.32854,-6.76195c-0.80455,-0.54556 -1.84365,-0.80391 -2.64706,-1.35066c-0.56322,-0.3833 -0.78222,-1.08656 -1.39988,-1.40345c-1.59996,-0.82087 -3.68633,-0.56769 -5.47138,-1.03749c-2.66663,-0.70181 -5.032,-1.60572 -7.44261,-2.27484c-3.53421,0.53827 -7.69131,0.68523 -9.7275,-0.23522c-0.12495,-0.05649 -0.24788,-0.11597 -0.36871,-0.17831c-1.96147,0.67466 -3.83696,2.02296 -5.65107,2.59225c-0.3067,0.09625 -0.65816,-0.03369 -0.99266,-0.09082l-1.18565,1.76453c-0.84882,1.31938 -2.49622,2.21413 -4.38937,2.21413c-2.76142,0 -5,-1.90372 -5,-4.25209c0,-0.59233 0.14241,-1.15637 0.39972,-1.66872l1.01672,-2.16158l0.32438,0.11034l0.20685,-0.30784l-0.06306,-0.56406c0.70588,-0.60029 1.56244,-1.09536 2.11765,-1.80089c0.59265,-0.75311 0.57955,-1.80264 1.26444,-2.49686c2.33317,-2.36497 5.37216,-2.90606 8.30329,-4.3668c1.33922,-1.13889 3.06692,-1.8978 4.49307,-2.95763c1.70067,-1.26384 2.95855,-3.0793 5.01373,-3.87573c3.22404,-1.24938 6.3167,-0.56725 9.62758,-0.80985c5.02688,-0.36834 11.08648,-1.19915 16.12352,-0.38419c2.21742,0.35877 4.89715,1.74596 6.92627,2.54755c1.66848,0.65912 3.60393,0.71547 5.28668,1.34783c0.96323,0.36196 1.66186,1.11177 2.57939,1.55129c1.79615,0.86038 4.02917,0.84799 5.8912,1.60028c2.31446,0.93507 3.78419,2.38585 5.52905,3.86496c0.64646,0.43772 5.1508,3.46756 5.39868,3.73342c0.60604,0.65002 0.51916,1.6414 1.10584,2.30415c1.06113,1.1987 2.69923,1.93311 4.02511,2.92298c2.16382,1.61544 4.71485,2.88822 6.88235,4.50223c1.43779,1.07063 2.5217,2.4715 4.03635,3.46251c1.67323,1.09477 3.72112,1.7846 5.22318,3.04618c3.05268,2.56395 4.7001,6.12033 7.28785,8.94411c2.22872,2.43202 6.16866,4.53623 7.6863,7.39198l3.02585,2.57325c0.90482,0.76947 1.46447,1.8325 1.46447,3.00669c0,0.63843 -0.16544,1.24399 -0.46186,1.78737l1.64445,0.60861c0,0 1.8363,1.56163 1.53873,3.55945zM379.6203,230.73297c-0.76083,-0.81895 -1.4937,-1.672 -2.18926,-2.59664c-1.31455,-1.74747 -2.8668,-4.05636 -4.6046,-5.57023c-1.19236,-1.03871 -2.96289,-1.46095 -4.30624,-2.35649c-1.31289,-0.87525 -2.17793,-1.80088 -3.19986,-2.72104c2.16838,2.59403 4.19756,5.26827 6.27648,7.77017c2.51681,1.84798 5.3441,3.62723 8.02348,5.47423z" fill="#3e7fcd" stroke="none" stroke-width="0.5" stroke-linecap="butt"/><path d="M289.66391,203.06039c0,-2.46579 2.35051,-4.4647 5.25,-4.4647c2.89949,0 5.25,1.99892 5.25,4.4647c0,2.46579 -2.35051,4.46471 -5.25,4.46471c-2.89949,0 -5.25,-1.99892 -5.25,-4.46471z" fill="#3e7fcd" stroke="none" stroke-width="0.5" stroke-linecap="butt"/></g></g></svg>